<svg width="1236" height="423" viewBox="0 0 1236 423" fill="none" xmlns="http://www.w3.org/2000/svg">
<path d="M669.618 235.72V241H655.026V209.224C655.026 205.448 654.194 202.728 652.53 201.064C650.866 199.336 648.402 198.472 645.138 198.472C642.898 198.472 640.818 198.76 638.898 199.336C637.042 199.848 633.97 200.872 629.682 202.408V232.84L636.21 235.72V241H621.618V209.224C621.618 205.448 620.786 202.728 619.122 201.064C617.458 199.336 614.994 198.472 611.73 198.472C609.554 198.472 607.506 198.76 605.586 199.336C603.73 199.848 600.626 200.872 596.274 202.408V232.84L602.802 235.72V241H581.682V235.72L588.21 232.84V200.968L581.682 198.28V192.808H592.338L594.834 196.744C598.61 194.824 602.002 193.48 605.01 192.712C608.018 191.88 611.122 191.464 614.322 191.464C617.522 191.464 620.178 191.912 622.29 192.808C624.466 193.704 626.258 195.112 627.666 197.032C631.506 195.048 634.962 193.64 638.034 192.808C641.17 191.912 644.402 191.464 647.73 191.464C651.57 191.464 654.61 192.104 656.85 193.384C659.09 194.6 660.69 196.584 661.65 199.336C662.61 202.024 663.09 205.672 663.09 210.28V232.84L669.618 235.72ZM732.239 192.808V198.184L724.367 200.872L703.151 248.2C701.551 251.848 699.759 254.664 697.775 256.648C695.855 258.696 693.391 260.168 690.383 261.064C687.439 262.024 683.599 262.504 678.863 262.504H676.943V255.4C679.375 255.592 681.711 255.688 683.951 255.688C686.383 255.688 688.303 255.368 689.711 254.728C691.183 254.088 692.623 252.744 694.031 250.696C695.503 248.712 697.263 245.512 699.311 241.096L680.879 200.872L673.007 198.184V192.808H697.487V198.184L689.711 200.776L703.535 231.784L717.167 200.776L709.391 198.184V192.808H732.239ZM737.514 235.72L744.618 232.744V183.976L737.514 181.192V175.72H776.586C782.41 175.72 786.698 177.128 789.45 179.944C792.266 182.696 793.674 186.6 793.674 191.656C793.674 196.072 792.746 199.656 790.89 202.408C789.098 205.096 786.506 206.888 783.114 207.784C786.698 208.36 789.514 209.992 791.562 212.68C793.61 215.304 794.634 219.112 794.634 224.104C794.634 229.672 793.226 233.896 790.41 236.776C787.594 239.592 783.434 241 777.93 241H737.514V235.72ZM774.762 204.712C778.474 204.712 781.098 203.88 782.634 202.216C784.234 200.488 785.034 197.64 785.034 193.672C785.034 189.768 784.298 186.952 782.826 185.224C781.354 183.496 778.922 182.632 775.53 182.632H752.874V204.712H774.762ZM776.298 234.088C779.69 234.088 782.154 233.224 783.69 231.496C785.226 229.704 785.994 226.824 785.994 222.856C785.994 218.824 785.194 215.944 783.594 214.216C781.994 212.488 779.306 211.624 775.53 211.624H752.874V234.088H776.298ZM828.711 191.464C836.071 191.464 841.959 193.512 846.375 197.608C850.855 201.64 853.095 208.072 853.095 216.904C853.095 225.736 850.855 232.2 846.375 236.296C841.959 240.328 836.071 242.344 828.711 242.344C821.351 242.344 815.431 240.328 810.951 236.296C806.535 232.2 804.327 225.736 804.327 216.904C804.327 208.072 806.535 201.64 810.951 197.608C815.431 193.512 821.351 191.464 828.711 191.464ZM828.711 198.376C824.871 198.376 821.799 198.92 819.495 200.008C817.255 201.096 815.559 202.984 814.407 205.672C813.319 208.36 812.775 212.104 812.775 216.904C812.775 221.704 813.319 225.448 814.407 228.136C815.559 230.824 817.255 232.712 819.495 233.8C821.799 234.888 824.871 235.432 828.711 235.432C832.551 235.432 835.591 234.888 837.831 233.8C840.135 232.712 841.831 230.824 842.919 228.136C844.071 225.448 844.647 221.704 844.647 216.904C844.647 212.104 844.071 208.36 842.919 205.672C841.831 202.984 840.135 201.096 837.831 200.008C835.591 198.92 832.551 198.376 828.711 198.376ZM885.336 191.464C892.696 191.464 898.584 193.512 903 197.608C907.48 201.64 909.72 208.072 909.72 216.904C909.72 225.736 907.48 232.2 903 236.296C898.584 240.328 892.696 242.344 885.336 242.344C877.976 242.344 872.056 240.328 867.576 236.296C863.16 232.2 860.952 225.736 860.952 216.904C860.952 208.072 863.16 201.64 867.576 197.608C872.056 193.512 877.976 191.464 885.336 191.464ZM885.336 198.376C881.496 198.376 878.424 198.92 876.12 200.008C873.88 201.096 872.184 202.984 871.032 205.672C869.944 208.36 869.4 212.104 869.4 216.904C869.4 221.704 869.944 225.448 871.032 228.136C872.184 230.824 873.88 232.712 876.12 233.8C878.424 234.888 881.496 235.432 885.336 235.432C889.176 235.432 892.216 234.888 894.456 233.8C896.76 232.712 898.456 230.824 899.544 228.136C900.696 225.448 901.272 221.704 901.272 216.904C901.272 212.104 900.696 208.36 899.544 205.672C898.456 202.984 896.76 201.096 894.456 200.008C892.216 198.92 889.176 198.376 885.336 198.376ZM974.409 235.72V241H963.561L943.305 217.288L932.649 225.16V232.84L939.177 235.72V241H918.057V235.72L924.585 232.84V181L918.057 178.312V172.84H932.649V216.808L955.305 200.392L947.337 198.28V192.808H971.433V198.28L964.905 201.448L949.833 212.584L967.401 232.84L974.409 235.72ZM1013.93 204.52C1019.24 205.544 1023.18 206.632 1025.74 207.784C1028.36 208.936 1030.25 210.664 1031.4 212.968C1032.62 215.208 1033.23 218.472 1033.23 222.76C1033.23 227.56 1032.36 231.336 1030.64 234.088C1028.91 236.84 1026.19 238.824 1022.48 240.04C1018.76 241.192 1013.71 241.768 1007.31 241.768C998.669 241.768 990.669 240.808 983.309 238.888V221.8H989.933L991.565 232.84C996.685 234.056 1002.03 234.664 1007.6 234.664C1012.33 234.664 1015.92 234.312 1018.35 233.608C1020.84 232.904 1022.54 231.816 1023.44 230.344C1024.33 228.808 1024.78 226.728 1024.78 224.104C1024.78 220.904 1024.4 218.664 1023.63 217.384C1022.86 216.104 1021.32 215.112 1019.02 214.408C1016.72 213.704 1012.27 212.744 1005.68 211.528L1003.28 211.048C998.029 210.088 993.965 208.936 991.085 207.592C988.269 206.184 986.253 204.36 985.037 202.12C983.885 199.88 983.309 196.904 983.309 193.192C983.309 188.648 984.141 185.064 985.805 182.44C987.533 179.752 990.221 177.832 993.869 176.68C997.517 175.528 1002.38 174.952 1008.46 174.952C1015.95 174.952 1023.69 175.784 1031.69 177.448V194.248H1025.36L1023.82 183.592C1018.96 182.568 1013.71 182.056 1008.08 182.056C1003.66 182.056 1000.27 182.408 997.901 183.112C995.533 183.752 993.901 184.776 993.005 186.184C992.173 187.528 991.757 189.384 991.757 191.752C991.757 194.696 992.173 196.808 993.005 198.088C993.901 199.368 995.501 200.36 997.805 201.064C1000.17 201.768 1004.56 202.728 1010.96 203.944L1013.93 204.52ZM1065.4 241.768C1059.26 241.768 1054.84 240.52 1052.15 238.024C1049.53 235.528 1048.22 231.304 1048.22 225.352V199.528H1040.73V194.152L1048.22 192.808L1051.1 178.888H1056.28V192.808L1072.7 192.904V199.624L1056.28 199.528V225.352C1056.28 227.976 1056.6 229.96 1057.24 231.304C1057.88 232.648 1058.94 233.576 1060.41 234.088C1061.88 234.6 1064.03 234.856 1066.84 234.856C1069.02 234.856 1071.29 234.632 1073.66 234.184V240.904C1071.35 241.48 1068.6 241.768 1065.4 241.768ZM1104.9 191.464C1112.26 191.464 1118.15 193.512 1122.56 197.608C1127.04 201.64 1129.28 208.072 1129.28 216.904C1129.28 225.736 1127.04 232.2 1122.56 236.296C1118.15 240.328 1112.26 242.344 1104.9 242.344C1097.54 242.344 1091.62 240.328 1087.14 236.296C1082.72 232.2 1080.51 225.736 1080.51 216.904C1080.51 208.072 1082.72 201.64 1087.14 197.608C1091.62 193.512 1097.54 191.464 1104.9 191.464ZM1104.9 198.376C1101.06 198.376 1097.99 198.92 1095.68 200.008C1093.44 201.096 1091.75 202.984 1090.59 205.672C1089.51 208.36 1088.96 212.104 1088.96 216.904C1088.96 221.704 1089.51 225.448 1090.59 228.136C1091.75 230.824 1093.44 232.712 1095.68 233.8C1097.99 234.888 1101.06 235.432 1104.9 235.432C1108.74 235.432 1111.78 234.888 1114.02 233.8C1116.32 232.712 1118.02 230.824 1119.11 228.136C1120.26 225.448 1120.83 221.704 1120.83 216.904C1120.83 212.104 1120.26 208.36 1119.11 205.672C1118.02 202.984 1116.32 201.096 1114.02 200.008C1111.78 198.92 1108.74 198.376 1104.9 198.376ZM1171.12 191.272C1173.94 191.272 1175.99 191.944 1177.27 193.288C1178.55 194.632 1179.19 196.712 1179.19 199.528C1179.19 204.712 1176.24 207.304 1170.36 207.304L1166.52 198.664C1164.02 199.304 1161.49 200.2 1158.93 201.352C1156.44 202.44 1154.2 203.624 1152.21 204.904V232.84L1161.14 235.72V241H1137.62V235.72L1144.15 232.84V200.968L1137.62 198.28V192.808H1148.28L1151.92 198.568C1155.12 196.2 1158.39 194.408 1161.72 193.192C1165.04 191.912 1168.18 191.272 1171.12 191.272ZM1209.61 191.464C1216.14 191.464 1221.42 193.512 1225.45 197.608C1229.55 201.64 1231.59 207.656 1231.59 215.656V219.496H1193.96C1194.28 223.784 1195.05 227.08 1196.27 229.384C1197.55 231.624 1199.37 233.192 1201.74 234.088C1204.17 234.984 1207.5 235.432 1211.72 235.432C1217.8 235.432 1223.82 234.696 1229.77 233.224V240.136C1227.27 240.776 1224.36 241.288 1221.03 241.672C1217.71 242.12 1214.54 242.344 1211.53 242.344C1203.02 242.344 1196.55 240.424 1192.14 236.584C1187.72 232.744 1185.51 226.184 1185.51 216.904C1185.51 208.264 1187.69 201.864 1192.04 197.704C1196.39 193.544 1202.25 191.464 1209.61 191.464ZM1209.13 198.376C1204.14 198.376 1200.49 199.496 1198.19 201.736C1195.88 203.976 1194.51 207.624 1194.06 212.68H1223.05C1222.67 207.944 1221.35 204.392 1219.11 202.024C1216.87 199.592 1213.55 198.376 1209.13 198.376Z" fill="black"/>
<path d="M404.266 97L140.266 88.5H48.2656L22.7656 105.5L33.7656 157V179L40.7656 214.5V237.5L12.2656 246V287L22.7656 319.5L192.266 373L388.266 319.5L380.766 296L388.266 265.5V246L404.266 237.5V194.5L396.766 157V124L404.266 97Z" fill="white"/>
<g clip-path="url(#clip0)">
<path d="M274.266 45.7C271.766 45.9 268.866 46.5 267.766 47C266.666 47.5 258.566 48.6 249.766 49.5C240.966 50.4 232.866 51.5 231.766 52C230.666 52.5 222.366 53.6 213.266 54.6C204.166 55.5 196.366 56.6 195.766 57C195.266 57.4 186.866 58.5 177.266 59.5C167.666 60.5 159.566 61.6 159.266 62C158.966 62.3 150.866 63.6 141.266 64.8C105.966 69.1 96.7656 70.4 96.2656 71C95.9656 71.4 87.5656 72.5 77.5656 73.5C67.4656 74.5 59.2656 75.7 59.2656 76.2C59.2656 76.6 57.5656 77 55.5656 77C50.0656 77.1 38.8656 79.6 38.4656 80.9C38.2656 81.5 37.5656 82 36.8656 82C35.2656 82 29.4656 87.7 28.7656 90.1C28.3656 91.1 27.7656 92 27.2656 92C26.7656 92 25.7656 93.9 25.0656 96.2C24.4656 98.6 23.3656 100.8 22.7656 101.2C21.2656 102.3 21.3656 138.3 22.9656 140.1C23.5656 140.9 24.6656 143.8 25.3656 146.5C26.0656 149.3 27.2656 152.1 27.9656 152.8C28.6656 153.5 29.2656 154.7 29.2656 155.4C29.2656 156.1 30.1656 157.5 31.2656 158.5C35.0656 162 33.8656 163.5 25.7656 165.4C21.5656 166.4 17.5656 167.8 16.7656 168.7C14.5656 170.9 15.0656 178 17.3656 178C17.8656 178 19.1656 178.9 20.2656 180C21.3656 181.1 23.1656 182 24.2656 182C25.3656 182 26.2656 182.4 26.2656 183C26.2656 183.5 26.8656 184 27.5656 184C29.7656 184 34.0656 188.8 35.3656 192.7C35.9656 194.8 36.9656 196.8 37.5656 197.1C38.0656 197.5 38.7656 203.7 39.0656 210.9C39.4656 222.6 39.3656 224 37.8656 224C36.9656 224 36.2656 224.4 36.2656 224.9C36.2656 225.4 32.8656 226.6 28.7656 227.6C24.6656 228.6 21.2656 229.7 21.2656 230.1C21.2656 230.6 19.3656 231.4 17.0656 232.1C11.7656 233.5 9.06563 236.2 9.46563 239.7C9.76563 242 10.4656 242.6 14.7656 243.6C17.5656 244.2 19.1656 244.8 18.5656 244.9C17.8656 244.9 16.5656 246.5 15.6656 248.2C14.7656 250 13.6656 251.7 13.1656 252C12.7656 252.3 11.6656 255.2 10.7656 258.5C7.96563 269.4 9.36563 302.9 12.7656 306.4C13.4656 307.1 14.3656 309 14.6656 310.7C15.0656 312.4 16.1656 314.6 17.1656 315.7C18.1656 316.7 19.5656 318.6 20.1656 319.8C20.7656 321 21.9656 322 22.7656 322C23.5656 322 24.2656 322.4 24.2656 322.9C24.2656 324 29.8656 327 31.9656 327C32.6656 327 33.2656 327.4 33.2656 327.9C33.2656 328.4 35.7656 329.4 38.7656 330.1C41.7656 330.8 44.2656 331.6 44.2656 332C44.2656 332.4 47.0656 333.3 50.4656 334C53.9656 334.6 58.5656 336 60.7656 337C62.9656 338 66.3656 339.1 68.2656 339.5C70.1656 339.9 73.5656 341 75.7656 342C77.9656 343 82.3656 344.4 85.5656 345C88.6656 345.7 91.2656 346.6 91.2656 347C91.2656 347.4 94.8656 348.5 99.2656 349.5C103.666 350.5 107.266 351.7 107.266 352.1C107.266 352.5 108.966 353.1 111.066 353.5C113.066 353.9 116.566 355 118.766 356C120.966 357 125.366 358.4 128.566 359C131.666 359.7 134.266 360.6 134.266 361C134.266 361.3 137.566 362.4 141.566 363.5C145.466 364.5 149.266 365.6 149.766 366C150.366 366.4 153.966 367.5 157.766 368.5C161.666 369.5 164.966 370.6 165.266 371C165.566 371.3 168.966 372.5 172.766 373.5C176.666 374.5 180.066 375.8 180.466 376.4C181.266 377.6 191.966 377.5 193.566 376.2C194.266 375.7 199.166 374.4 204.566 373.4C209.866 372.4 214.266 371.3 214.266 371C214.266 370.6 218.866 369.5 224.566 368.5C230.166 367.5 234.966 366.3 235.266 366C235.566 365.7 240.366 364.5 246.066 363.5C251.666 362.5 256.266 361.4 256.266 361C256.266 360.7 260.666 359.6 266.066 358.6C271.366 357.6 276.266 356.4 276.766 355.9C277.366 355.5 280.966 354.6 284.766 353.9C288.666 353.3 291.966 352.4 292.266 352C292.566 351.6 296.866 350.6 301.766 349.6C306.766 348.7 311.666 347.5 312.766 347C313.866 346.6 319.066 345.4 324.266 344.4C329.466 343.5 333.966 342.4 334.266 342C334.566 341.6 339.066 340.5 344.266 339.5C349.466 338.5 354.266 337.4 354.766 337C355.366 336.6 360.066 335.5 365.266 334.5C370.466 333.6 375.266 332.5 375.766 332C376.366 331.6 380.066 330.7 384.066 330C387.966 329.3 391.266 328.4 391.266 328C391.266 327.6 395.966 326.5 401.766 325.4C407.566 324.4 412.266 323.3 412.266 322.9C412.266 322.5 414.066 322 416.366 321.6C419.966 321 420.366 320.7 420.066 318.4C419.866 316.8 418.666 315.2 416.766 314.2C415.166 313.3 413.666 312.2 413.466 311.8C413.266 311.5 410.566 310.4 407.466 309.4C404.366 308.4 401.566 307.3 401.266 307C400.966 306.6 398.366 305.7 395.566 305L390.266 303.8V293.3C390.266 282.8 392.566 269 394.366 269C394.866 269 395.766 268 396.366 266.7C397.366 264.6 399.866 263 405.066 261.5C406.266 261.2 407.266 260.4 407.266 259.9C407.266 259.4 407.966 259 408.766 259C411.266 259 413.566 254.4 412.866 250.7C412.366 247.8 411.666 247.3 407.766 246.2L403.266 245L407.066 241.3C409.066 239.2 411.466 236.3 412.166 234.7C412.966 233.2 413.966 232 414.266 232C414.666 232 415.566 229.2 416.266 225.7C416.966 222.3 418.066 219.2 418.666 218.8C420.166 217.8 420.166 181.2 418.766 180.2C418.166 179.8 417.066 177.6 416.366 175.3C415.566 173 414.366 170.9 413.666 170.6C412.866 170.3 412.266 169.4 412.266 168.7C412.266 167.7 414.666 166.9 419.766 166C423.866 165.3 427.266 164.4 427.266 163.9C427.266 163.5 428.266 163 429.566 162.8C431.266 162.6 431.766 161.8 431.766 159.5C431.766 157.2 431.066 156.2 428.766 155.1C427.166 154.3 425.566 153.4 425.266 152.9C424.966 152.5 422.066 151.4 418.766 150.5C415.466 149.5 412.566 148.4 412.266 148C411.966 147.7 409.766 146.9 407.266 146.4L402.766 145.5V132.2C402.766 124.5 403.166 118.6 403.766 118.2C404.366 117.8 405.366 115.7 406.166 113.5C407.766 109 411.966 104 414.266 103.9C415.066 103.9 418.066 102.6 420.766 101.1C424.666 98.9 425.866 97.7 426.066 95.5C426.766 89.9 425.666 88.3 420.766 87.6C418.266 87.2 416.266 86.5 416.266 86.1C416.266 85.7 413.366 84.8 409.866 84.1C406.366 83.4 402.366 82.2 400.966 81.5C399.566 80.8 394.966 79.4 390.566 78.4C386.266 77.4 382.566 76.3 382.266 75.9C381.966 75.5 378.266 74.5 374.066 73.5C369.766 72.6 366.266 71.5 366.266 71.1C366.266 70.7 363.366 69.8 359.766 69.1C356.166 68.4 353.266 67.5 353.266 67C353.266 66.6 349.466 65.5 344.766 64.5C340.066 63.5 336.266 62.4 336.266 62.1C336.266 61.7 332.466 60.5 327.766 59.5C323.066 58.4 319.266 57.2 319.266 56.9C319.266 56.6 315.566 55.5 311.066 54.5C306.466 53.5 302.566 52.4 302.266 52C301.966 51.6 298.366 50.5 294.266 49.5C290.166 48.5 286.366 47.4 285.766 47C284.266 45.8 279.266 45.3 274.266 45.7ZM50.2656 96.8C50.2656 97.3 53.6656 98.4 57.7656 99.4C61.8656 100.4 65.2656 101.5 65.2656 101.9C65.2656 102.3 68.8656 103.5 73.2656 104.5C77.6656 105.5 81.2656 106.7 81.2656 107.1C81.2656 107.5 83.6656 108.4 86.5656 109C89.3656 109.7 91.9656 110.6 92.2656 111C92.5656 111.3 95.9656 112.4 99.7656 113.5C103.666 114.5 107.266 115.6 107.766 116C108.366 116.4 112.066 117.5 116.066 118.5C119.966 119.4 123.266 120.5 123.266 120.9C123.266 121.3 126.866 122.5 131.266 123.5C135.666 124.5 139.266 125.7 139.266 126.1C139.266 126.5 142.666 127.6 146.766 128.6C150.866 129.6 154.266 130.7 154.266 131C154.266 131.4 156.766 132.3 159.766 133C162.766 133.7 165.266 134.6 165.266 135C165.266 135.3 168.866 136.4 173.266 137.4C177.666 138.4 181.566 139.6 181.766 140C182.066 140.5 185.666 141.6 189.766 142.6C193.866 143.6 197.266 144.7 197.266 145.2C197.266 145.6 197.866 146 198.566 146C199.466 146 199.666 150.8 199.166 168.2C198.766 180.5 198.466 191.3 198.366 192.3C198.266 193.8 197.666 194 194.566 193.4C192.466 193 190.566 192.4 190.266 192C189.966 191.6 185.766 190.5 180.766 189.5C175.866 188.5 171.566 187.3 171.266 186.9C170.966 186.6 166.966 185.4 162.266 184.5C157.566 183.5 153.466 182.3 153.166 181.8C152.866 181.4 149.066 180.3 144.766 179.5C140.366 178.6 136.566 177.6 136.266 177.1C135.966 176.7 131.866 175.5 127.066 174.5C122.166 173.5 118.266 172.4 118.266 172C118.266 171.6 115.166 170.7 111.266 170C107.466 169.3 104.266 168.4 104.266 168.1C104.266 167.7 100.366 166.6 95.5656 165.6C90.6656 164.5 86.5656 163.4 86.2656 163C85.9656 162.7 82.1656 161.6 77.7656 160.6C73.3656 159.6 68.4656 158.2 66.7656 157.5C65.1656 156.8 60.4656 155.6 56.5656 154.9C52.5656 154.2 49.2656 153.3 49.2656 152.8C49.2656 152.4 48.6656 152 48.0656 152C45.8656 151.9 42.7656 148.7 41.2656 145C40.4656 143.1 39.5656 141.3 39.0656 141C38.6656 140.7 37.7656 136.1 37.1656 130.9C35.8656 120.5 36.6656 106.8 38.6656 104.7C39.3656 104.1 40.1656 102.7 40.5656 101.7C40.9656 100.7 42.6656 99.3 44.2656 98.7C45.9656 98.1 47.2656 97.2 47.2656 96.8C47.2656 96.4 47.9656 96 48.7656 96C49.5656 96 50.2656 96.4 50.2656 96.8ZM395.266 110.4C395.266 111.1 394.566 113.7 393.666 116.1C392.566 119.2 392.066 124.6 391.966 135L391.766 149.5L384.266 150.9C380.166 151.7 376.566 152.6 376.266 153C375.966 153.4 371.466 154.5 366.266 155.5C361.066 156.5 356.566 157.6 356.266 158C355.966 158.4 351.466 159.5 346.266 160.5C341.066 161.5 336.566 162.6 336.266 163C335.966 163.4 331.466 164.5 326.266 165.4C321.066 166.3 316.366 167.5 315.766 167.9C315.266 168.4 311.666 169.3 307.766 170C303.966 170.7 300.566 171.6 300.266 172C299.966 172.3 295.366 173.5 290.066 174.5C284.666 175.5 280.266 176.7 280.266 177C280.266 177.4 275.766 178.5 270.266 179.5C264.766 180.5 260.266 181.6 260.266 182C260.266 182.4 255.366 183.5 249.266 184.5C243.266 185.5 238.266 186.6 238.266 187C238.266 187.3 233.866 188.5 228.566 189.5C223.166 190.5 218.566 191.6 218.266 192C217.966 192.4 215.866 193.1 213.566 193.5L209.266 194.2L209.366 179.8C209.466 172 209.766 161.2 210.166 156L210.766 146.5L214.566 146.2C216.566 146 218.266 145.5 218.266 145.1C218.266 144.6 223.666 143.4 230.266 142.4C236.866 141.4 242.266 140.3 242.266 139.9C242.266 139.6 247.866 138.5 254.766 137.5C261.666 136.5 267.266 135.4 267.266 135C267.266 134.6 271.166 133.7 276.066 133C280.866 132.3 285.266 131.3 285.766 130.9C286.366 130.5 291.966 129.4 298.266 128.4C304.566 127.5 309.966 126.4 310.266 126C310.566 125.6 316.066 124.5 322.566 123.5C328.966 122.6 334.266 121.5 334.266 121.1C334.266 120.7 339.766 119.5 346.566 118.6C353.266 117.6 358.966 116.4 359.266 116.1C359.566 115.7 365.066 114.6 371.566 113.6C377.966 112.6 383.266 111.4 383.266 110.9C383.266 110.2 386.166 109.7 393.066 109.2C394.366 109.1 395.266 109.6 395.266 110.4ZM396.466 177C401.466 179.3 405.266 189 405.266 199.2C405.266 205.4 403.466 217 402.366 218.5C401.866 219 401.266 220.8 400.866 222.3C399.666 227.3 393.966 231.9 387.466 233.2C384.366 233.8 381.566 234.6 381.266 235C380.966 235.3 377.166 236.4 372.866 237.4C368.466 238.3 364.366 239.5 363.866 239.9C363.266 240.4 360.766 241.1 358.266 241.5C355.766 241.9 352.466 242.8 350.766 243.5C349.166 244.2 344.366 245.6 340.266 246.6C336.166 247.5 332.566 248.6 332.266 249C331.966 249.4 327.566 250.5 322.566 251.5C317.466 252.5 313.266 253.7 313.266 254C313.266 254.4 309.366 255.5 304.566 256.5C299.666 257.5 295.566 258.6 295.266 259C294.966 259.4 291.166 260.5 286.766 261.4C282.466 262.3 278.566 263.4 278.266 263.8C277.966 264.2 274.866 265.2 271.266 265.9C267.666 266.6 264.566 267.5 264.266 268C263.966 268.4 259.866 269.6 255.066 270.5C250.166 271.5 246.266 272.7 246.266 273.1C246.266 273.6 245.566 274 244.766 274C242.966 274 243.166 276.1 242.366 247.7L241.766 225L245.266 224C247.166 223.4 249.566 223 250.566 223C251.466 223 252.266 222.6 252.266 222.2C252.266 221.7 255.666 220.5 259.766 219.5C263.866 218.4 267.266 217.3 267.266 217C267.266 216.7 270.666 215.6 274.766 214.5C278.866 213.5 282.266 212.4 282.266 212C282.266 211.6 285.066 210.7 288.566 210C291.966 209.3 296.566 207.9 298.766 206.9C300.966 206 304.466 204.9 306.566 204.5C308.566 204.1 310.266 203.5 310.266 203.1C310.266 202.7 313.666 201.6 317.766 200.5C321.866 199.5 325.266 198.4 325.266 198C325.266 197.7 328.666 196.6 332.766 195.5C336.866 194.5 340.266 193.4 340.266 193C340.266 192.7 344.066 191.5 348.766 190.5C353.466 189.4 357.266 188.2 357.266 187.9C357.266 187.5 360.566 186.4 364.566 185.5C368.466 184.5 371.966 183.4 372.266 183C372.566 182.7 375.066 181.7 377.766 181C380.566 180.3 382.966 179.3 383.266 179C383.766 178.3 390.466 176.3 392.966 176.1C393.666 176 395.166 176.5 396.466 177ZM57.8656 190.4C62.9656 191.3 68.2656 192 69.6656 192C71.0656 192 72.2656 192.4 72.2656 192.9C72.2656 193.4 77.5656 194.6 84.0656 195.6C90.4656 196.6 95.9656 197.7 96.2656 198.1C96.5656 198.4 102.066 199.5 108.566 200.5C114.966 201.5 120.266 202.6 120.266 203C120.266 203.4 124.566 204.3 129.766 205.1C134.966 205.8 139.266 206.7 139.266 207C139.266 207.4 144.666 208.5 151.266 209.5C157.866 210.4 163.266 211.6 163.266 212C163.266 212.4 168.766 213.5 175.566 214.5C182.266 215.5 187.966 216.6 188.266 217C188.566 217.4 193.966 218.5 200.266 219.5C206.566 220.4 212.266 221.6 212.766 222C213.366 222.4 217.666 223.3 222.366 224L230.966 225.2L231.566 238.7C232.766 262.6 232.466 274 230.766 274C229.966 274 229.266 273.6 229.266 273.2C229.266 272.7 224.766 271.5 219.266 270.5C213.766 269.5 209.266 268.4 209.266 268C209.266 267.6 205.766 266.7 201.566 266C197.266 265.4 193.366 264.5 192.766 264C192.266 263.6 187.466 262.5 182.266 261.5C177.066 260.5 172.566 259.4 172.266 259C171.966 258.6 167.466 257.5 162.266 256.5C157.066 255.5 152.566 254.4 152.266 254C151.966 253.6 147.466 252.5 142.266 251.5C137.066 250.5 132.566 249.4 132.266 249C131.966 248.6 127.466 247.5 122.266 246.5C117.066 245.5 112.566 244.4 112.266 244C111.966 243.6 108.866 242.8 105.266 242.1C101.666 241.5 97.8656 240.5 96.7656 240C95.6656 239.6 90.4656 238.4 85.2656 237.4C80.0656 236.5 75.5656 235.4 75.2656 235C74.9656 234.6 70.5656 233.5 65.5656 232.5C60.4656 231.6 56.2656 230.4 56.2656 229.9C56.2656 229.4 55.2656 229 54.0656 229C49.6656 229 49.4656 228.2 49.4656 213.1C49.4656 205 49.0656 198.5 48.5656 198.1C47.9656 197.8 47.2656 195.8 46.8656 193.7C46.4656 191.6 45.8656 189.2 45.5656 188.3C45.0656 187.1 45.3656 187 46.8656 187.8C47.8656 188.4 52.8656 189.6 57.8656 190.4ZM39.2656 255.8C39.2656 256.3 41.7656 257.3 44.7656 258C47.7656 258.7 50.2656 259.6 50.2656 260C50.2656 260.4 52.8656 261.2 56.0656 261.9C59.1656 262.6 63.0656 263.8 64.5656 264.5C66.0656 265.3 70.5656 266.7 74.5656 267.6C78.5656 268.6 81.9656 269.6 82.2656 270C82.5656 270.4 85.9656 271.5 89.7656 272.5C93.6656 273.5 96.9656 274.7 97.2656 275C97.5656 275.4 101.066 276.5 105.066 277.5C108.966 278.5 112.266 279.7 112.266 280.1C112.266 280.5 113.966 281.1 116.066 281.5C118.066 281.9 121.566 283 123.766 284C125.966 285 130.566 286.4 134.066 287C137.466 287.7 140.266 288.6 140.266 288.9C140.266 289.3 143.566 290.5 147.566 291.5C151.466 292.5 154.966 293.6 155.266 294C155.566 294.3 158.966 295.5 162.766 296.5C166.666 297.5 169.966 298.6 170.266 299C170.566 299.4 173.866 300.4 177.666 301.4C181.366 302.3 185.066 303.7 185.866 304.5C187.566 306.2 187.966 337 186.266 337C185.666 337 185.266 340.3 185.266 344.9V352.8L181.566 351.9C179.466 351.3 177.066 350.6 176.266 350.3C174.766 349.7 162.866 346.4 150.266 343.2C146.666 342.3 143.566 341.3 143.266 341C142.966 340.6 139.066 339.6 134.466 338.6C129.866 337.6 124.866 336.2 123.466 335.4C121.966 334.6 119.866 334 118.766 334C116.266 333.9 108.166 331.8 106.566 330.7C105.966 330.3 101.966 329.3 97.5656 328.4C93.2656 327.5 89.5656 326.5 89.2656 326.1C88.9656 325.7 84.9656 324.6 80.2656 323.6C75.5656 322.6 71.3656 321.5 70.7656 321C70.2656 320.6 67.0656 319.7 63.7656 319C60.4656 318.3 57.5656 317.4 57.2656 317.1C56.7656 316.3 47.9656 314.2 41.5656 313.3C39.7656 313 38.2656 312.5 38.2656 312.1C38.2656 311.7 36.6656 310.8 34.7656 310.1C32.8656 309.4 31.2656 308.2 31.2656 307.4C31.2656 306.6 30.5656 305.7 29.7656 305.4C28.0656 304.7 25.2656 296.2 25.2656 291.8C25.2656 290.3 24.8656 289 24.2656 289C23.6656 289 23.2656 285 23.2656 279C23.2656 273 23.6656 269 24.2656 269C24.8656 269 25.2656 268.2 25.2656 267.1C25.2656 263.9 28.1656 258 29.7656 258C30.6656 258 31.5656 257.3 31.8656 256.5C32.4656 254.9 39.2656 254.3 39.2656 255.8ZM382.266 267.9C382.266 268.5 381.566 271.9 380.666 275.7C379.466 280.7 379.166 285.9 379.466 295.2L379.866 307.9L370.566 309.6C365.466 310.6 361.266 311.7 361.266 312C361.266 312.4 356.766 313.5 351.266 314.5C345.766 315.5 341.266 316.6 341.266 317C341.266 317.4 337.766 318.3 333.566 319C329.266 319.7 325.366 320.6 324.766 321.1C324.266 321.5 319.766 322.6 314.766 323.6C309.866 324.5 305.566 325.6 305.266 326C304.966 326.3 300.166 327.5 294.566 328.5C288.866 329.5 284.266 330.6 284.266 331C284.266 331.3 279.866 332.5 274.566 333.5C269.166 334.5 264.566 335.6 264.266 336C263.966 336.4 259.566 337.5 254.366 338.4C249.266 339.4 244.266 340.6 243.366 341C242.466 341.5 238.666 342.6 234.766 343.4C226.366 345.2 209.966 349.3 202.266 351.4C199.266 352.3 196.666 353 196.566 353C196.366 353 196.266 344.4 196.266 334C196.266 322 196.666 315 197.266 315C197.866 315 198.266 312.7 198.266 310C198.266 306.2 198.666 305 199.766 305C200.566 305 201.266 304.7 201.266 304.2C201.266 303.8 206.666 302.6 213.166 301.6C219.766 300.6 225.266 299.4 225.466 298.8C225.666 298.2 229.966 297.7 235.266 297.5C244.766 297.3 256.266 295.3 256.266 294C256.266 293 263.166 291.3 270.566 290.5C273.666 290.1 276.266 289.4 276.266 289C276.266 288.5 281.666 287.4 288.266 286.4C294.866 285.4 300.266 284.3 300.266 283.9C300.266 283.6 304.566 282.7 309.766 281.9C314.966 281.2 319.266 280.3 319.266 280C319.266 279.6 320.966 279 323.066 278.7C325.066 278.4 330.366 277.6 334.766 277C339.166 276.3 342.966 275.5 343.266 275.1C343.566 274.7 349.166 273.5 355.766 272.5C362.366 271.5 367.966 270.4 368.266 270C368.566 269.6 371.466 268.8 374.766 268.3C378.066 267.7 381.066 267.2 381.566 267.1C381.966 267.1 382.266 267.4 382.266 267.9Z" fill="black"/>
</g>
<circle cx="191.133" cy="301.633" r="9.73664" fill="white" stroke="black" stroke-width="7.17633"/>
<circle cx="237.398" cy="281.07" r="9.73664" fill="white" stroke="black" stroke-width="7.17633"/>
<circle cx="235.93" cy="223.055" r="9.73664" fill="white" stroke="black" stroke-width="7.17633"/>
<circle cx="418.789" cy="93.0704" r="9.73664" fill="white" stroke="black" stroke-width="7.17633"/>
<circle cx="43.5235" cy="90.1329" r="9.73664" fill="white" stroke="black" stroke-width="7.17633"/>
<circle cx="277.055" cy="49.7422" r="9.73664" fill="white" stroke="black" stroke-width="7.17633"/>
<circle cx="418.789" cy="159.898" r="9.73664" fill="white" stroke="black" stroke-width="7.17633"/>
<circle cx="405.57" cy="251.695" r="9.73664" fill="white" stroke="black" stroke-width="7.17633"/>
<circle cx="14.1485" cy="239.211" r="9.73664" fill="white" stroke="black" stroke-width="7.17633"/>
<circle cx="184.523" cy="371.398" r="9.73664" fill="white" stroke="black" stroke-width="7.17633"/>
<circle cx="411.445" cy="316.32" r="9.73664" fill="white" stroke="black" stroke-width="7.17633"/>
<circle cx="22.2266" cy="313.383" r="9.73664" fill="white" stroke="black" stroke-width="7.17633"/>
<circle cx="15.6172" cy="172.383" r="9.73664" fill="white" stroke="black" stroke-width="7.17633"/>
<circle cx="204.352" cy="142.273" r="9.73664" fill="white" stroke="black" stroke-width="7.17633"/>
<defs>
<clipPath id="clip0">
<rect width="423" height="423" fill="white" transform="translate(9.26562)"/>
</clipPath>
</defs>
</svg>
